<svg width="320" height="320" viewBox="0 0 320 320" fill="none" xmlns="http://www.w3.org/2000/svg">
  <defs>
    <linearGradient id="bg" x1="0" y1="0" x2="320" y2="320" gradientUnits="userSpaceOnUse">
      <stop stop-color="#0b4aa2"/>
      <stop offset="0.55" stop-color="#6a5acd"/>
      <stop offset="1" stop-color="#d62839"/>
    </linearGradient>
    <linearGradient id="ring" x1="32" y1="32" x2="288" y2="288" gradientUnits="userSpaceOnUse">
      <stop stop-color="#ffffff" stop-opacity="0.92"/>
      <stop offset="1" stop-color="#ffffff" stop-opacity="0.55"/>
    </linearGradient>
  </defs>
  <rect width="320" height="320" rx="72" fill="url(#bg)"/>
  <rect x="18" y="18" width="284" height="284" rx="58" stroke="url(#ring)" stroke-width="2"/>
  <circle cx="160" cy="122" r="46" fill="#ffffff" fill-opacity="0.18"/>
  <path d="M160 84C145.641 84 134 95.6406 134 110C134 124.359 145.641 136 160 136C174.359 136 186 124.359 186 110C186 95.6406 174.359 84 160 84ZM114 220C114 191.281 134.281 172 160 172C185.719 172 206 191.281 206 220V226H114V220Z" fill="white" fill-opacity="0.92"/>
  <text x="160" y="274" text-anchor="middle" fill="white" font-family="Inter, Arial, sans-serif" font-size="34" font-weight="700" letter-spacing="3">PAS</text>
</svg>